HIERARCHY
ROOT Hips
{
	OFFSET 0.000000 0.000000 0.000000
	CHANNELS 6 Xposition Yposition Zposition Xrotation Yrotation Zrotation
	JOINT LeftUpLeg_virtual
	{
		OFFSET 0.000000 0.000000 0.000000
		CHANNELS 3 Xrotation Yrotation Zrotation
		JOINT LeftUpLeg
		{
			OFFSET 13.026900 -6.336304 -1.092800
			CHANNELS 3 Xrotation Yrotation Zrotation
			JOINT LeftLeg
			{
				OFFSET 0.524474 -46.096886 9.782700
				CHANNELS 3 Xrotation Yrotation Zrotation
				JOINT LeftFoot
				{
					OFFSET -0.524474 -53.427422 -12.948200
					CHANNELS 3 Xrotation Yrotation Zrotation
					JOINT LeftToeBase
					{
						OFFSET 0.192200 -14.009700 16.364100
						CHANNELS 3 Xrotation Yrotation Zrotation
						JOINT LeftToe_End
						{
							OFFSET -1.784700 -0.561700 9.474800
							CHANNELS 3 Xrotation Yrotation Zrotation
							End Site
							{
								OFFSET 0 0 0
							}
						}
					}
				}
			}
		}
	}
	JOINT RightUpLeg_virtual
	{
		OFFSET 0.000000 0.000000 0.000000
		CHANNELS 3 Xrotation Yrotation Zrotation
		JOINT RightUpLeg
		{
			OFFSET -12.883000 -6.336304 -1.092800
			CHANNELS 3 Xrotation Yrotation Zrotation
			JOINT RightLeg
			{
				OFFSET -0.524587 -46.096825 9.782800
				CHANNELS 3 Xrotation Yrotation Zrotation
				JOINT RightFoot
				{
					OFFSET 0.524587 -53.427383 -12.948300
					CHANNELS 3 Xrotation Yrotation Zrotation
					JOINT RightToeBase
					{
						OFFSET -0.192200 -14.009700 16.364100
						CHANNELS 3 Xrotation Yrotation Zrotation
						JOINT RightToe_End
						{
							OFFSET 1.784700 -0.561700 9.474800
							CHANNELS 3 Xrotation Yrotation Zrotation
							End Site
							{
								OFFSET 0 0 0
							}
						}
					}
				}
			}
		}
	}
	JOINT Spine_virtual
	{
		OFFSET 0.000000 0.000000 0.000000
		CHANNELS 3 Xrotation Yrotation Zrotation
		JOINT Spine
		{
			OFFSET 0.072000 7.257294 -0.789700
			CHANNELS 3 Xrotation Yrotation Zrotation
			JOINT Spine1
			{
				OFFSET 0.000000 12.508769 -0.658067
				CHANNELS 3 Xrotation Yrotation Zrotation
				JOINT Spine1_split
				{
					OFFSET 0.000000 12.508769 -0.658067
					CHANNELS 3 Xrotation Yrotation Zrotation
					JOINT Spine2
					{
						OFFSET 0.000000 12.508769 -0.658067
						CHANNELS 3 Xrotation Yrotation Zrotation
						JOINT Neck_virtual
						{
							OFFSET 0.000000 0.000000 0.000000
							CHANNELS 3 Xrotation Yrotation Zrotation
							JOINT Neck
							{
								OFFSET 0.000000 14.033295 7.520400
								CHANNELS 3 Xrotation Yrotation Zrotation
								JOINT Head
								{
									OFFSET 0.000000 8.198502 5.703100
									CHANNELS 3 Xrotation Yrotation Zrotation
									JOINT HeadTop_End
									{
										OFFSET 0.000000 17.760803 13.332701
										CHANNELS 3 Xrotation Yrotation Zrotation
										End Site
										{
											OFFSET 0 0 0
										}
									}
								}
							}
						}
						JOINT LeftShoulder_virtual
						{
							OFFSET 0.000000 0.000000 0.000000
							CHANNELS 3 Xrotation Yrotation Zrotation
							JOINT LeftShoulder
							{
								OFFSET 6.292450 5.785301 -0.669000
								CHANNELS 3 Xrotation Yrotation Zrotation
								JOINT LeftShoulder_split
								{
									OFFSET 6.292450 5.785301 -0.669000
									CHANNELS 3 Xrotation Yrotation Zrotation
									JOINT LeftArm
									{
										OFFSET 13.907140 -6.093903 1.965100
										CHANNELS 3 Xrotation Yrotation Zrotation
										JOINT LeftForeArm
										{
											OFFSET 34.140198 0.000000 0.000000
											CHANNELS 3 Xrotation Yrotation Zrotation
											JOINT LeftHand
											{
												OFFSET 40.960209 0.000000 0.000000
												CHANNELS 3 Xrotation Yrotation Zrotation
												End Site
												{
													OFFSET 0 0 0
												}
											}
										}
									}
								}
							}
						}
						JOINT RightShoulder_virtual
						{
							OFFSET 0.000000 0.000000 0.000000
							CHANNELS 3 Xrotation Yrotation Zrotation
							JOINT RightShoulder
							{
								OFFSET -6.292450 5.785301 -0.669000
								CHANNELS 3 Xrotation Yrotation Zrotation
								JOINT RightShoulder_split
								{
									OFFSET -6.292450 5.785301 -0.669000
									CHANNELS 3 Xrotation Yrotation Zrotation
									JOINT RightArm
									{
										OFFSET -13.907140 -6.093903 1.965100
										CHANNELS 3 Xrotation Yrotation Zrotation
										JOINT RightForeArm
										{
											OFFSET -34.140198 0.000000 0.000000
											CHANNELS 3 Xrotation Yrotation Zrotation
											JOINT RightHand
											{
												OFFSET -40.960209 0.000000 0.000000
												CHANNELS 3 Xrotation Yrotation Zrotation
												End Site
												{
													OFFSET 0 0 0
												}
											}
										}
									}
								}
							}
						}
					}
				}
			}
		}
	}
}
MOTION
Frames: 11
Frame Time: 0.03333333
1.954825 112.397079 6.929951 0.000000 0.000000 0.000000 -13.236730 -54.023231 -7.942341 -21.307342 1.858749 11.504344 23.496221 -9.373408 0.624682 3.532553 -3.592338 -1.515323 -2.458583 -3.898754 1.923257 0.000000 0.000000 0.000000 -8.877971 -50.992078 -5.840845 -4.096015 -10.132534 -15.444984 30.527671 3.934712 -3.248976 -9.527853 -8.791823 26.501834 -7.480949 -1.085207 0.144609 0.000000 0.000000 0.000000 -14.076581 -46.629801 -8.168192 5.599230 5.620791 -1.291717 10.937760 10.119880 -3.440496 0.941207 -1.890122 0.615984 0.000000 0.000000 0.000000 10.856901 9.554136 -4.112810 -6.902708 -3.654181 1.589084 -4.390641 21.816833 0.187271 0.000000 0.000000 0.000000 10.023701 9.317436 -3.180423 2.424842 1.454093 -3.390224 -5.699734 2.634082 -6.112503 -14.842191 -3.262137 -56.372850 2.163430 -53.553932 1.210565 0.000000 0.000000 0.000000 9.961521 9.878036 -2.852790 2.660551 8.728813 9.621909 -2.934418 4.532000 -0.602543 -1.687260 -29.355398 65.835756 -8.576392 50.756560 9.391021 0.000000 0.000000 0.000000 
2.272361 112.969376 5.425026 0.000000 0.000000 0.000000 -12.163119 -53.801731 -6.816842 -21.311611 1.560875 11.776581 22.442356 -9.910237 0.584608 3.015760 -4.392167 -0.290811 -1.701310 -3.677064 1.348756 0.000000 0.000000 0.000000 -8.640742 -50.449365 -5.197494 -3.857879 -10.077522 -16.179140 29.229374 3.889614 -3.364528 -10.918236 -8.218268 24.285723 -4.113724 -1.288493 0.449333 0.000000 0.000000 0.000000 -13.321855 -46.799527 -7.806966 5.452797 5.494541 -1.096628 11.218516 10.146517 -3.418664 1.437323 -1.427762 0.402946 0.000000 0.000000 0.000000 11.032185 9.554056 -4.051848 -6.898661 -3.387296 1.645821 -4.210924 22.418385 0.107190 0.000000 0.000000 0.000000 10.571923 9.293720 -3.208628 2.455241 1.263891 -3.657526 -5.148523 2.658170 -5.883256 -13.190308 -2.113736 -57.415403 1.992745 -52.037733 1.256400 0.000000 0.000000 0.000000 10.549177 9.945378 -2.934463 2.631159 9.100094 10.345198 -3.625354 4.054576 -0.126766 -0.862166 -29.679201 65.728283 -8.261527 49.745186 9.232055 0.000000 0.000000 0.000000 
2.852977 112.952133 2.590191 0.000000 0.000000 0.000000 -10.705301 -52.698471 -5.478088 -22.029223 1.405518 12.770925 20.475420 -10.236387 0.261023 3.540723 -5.100682 -1.509060 -1.130352 -3.313835 0.659720 0.000000 0.000000 0.000000 -7.907488 -48.889333 -4.336299 -5.081895 -10.061371 -16.863532 29.972830 4.266289 -3.036244 -13.796394 -7.244864 19.593682 -0.554869 -1.308960 0.326474 0.000000 0.000000 0.000000 -12.306520 -45.808190 -7.140805 5.624999 5.077152 -1.210070 11.793308 10.063322 -3.393325 1.964955 -0.747880 0.307173 0.000000 0.000000 0.000000 11.547972 9.446081 -3.995976 -8.008190 -2.957383 1.846876 -4.076970 22.451923 -0.016971 0.000000 0.000000 0.000000 11.381060 9.172840 -3.264310 2.414410 1.251190 -3.414580 -4.716638 1.968009 -4.514866 -12.387758 -0.838117 -59.828557 3.082389 -50.825548 2.667437 0.000000 0.000000 0.000000 11.500923 9.861371 -3.138799 2.745675 9.449784 11.179265 -4.172840 3.460296 0.173288 -1.288313 -27.720804 64.315445 -7.643191 49.146674 8.487319 0.000000 0.000000 0.000000 
3.557930 112.180145 -1.362930 0.000000 0.000000 0.000000 -9.058340 -51.072248 -4.216316 -23.895396 1.474863 14.058590 18.447328 -9.921968 -0.129078 5.159860 -5.384498 -4.336068 -0.804984 -2.849673 -0.040650 0.000000 0.000000 0.000000 -6.567981 -46.627314 -3.284704 -8.061202 -10.382994 -17.359988 33.478954 5.204289 -2.137520 -15.867238 -5.397697 13.831162 0.675423 -1.315771 -0.076857 0.000000 0.000000 0.000000 -10.816059 -43.910412 -6.064662 6.049419 4.376477 -1.590395 12.614127 9.818102 -3.349061 1.931999 -0.364253 0.672378 0.000000 0.000000 0.000000 12.434922 9.191846 -3.946724 -10.119509 -2.408243 2.200806 -4.138290 21.916052 -0.104094 0.000000 0.000000 0.000000 12.462179 8.912423 -3.334130 2.345263 1.481760 -2.672919 -4.400902 0.994214 -2.610619 -13.501828 -0.127559 -62.783119 4.478129 -49.163138 4.591865 0.000000 0.000000 0.000000 12.738365 9.586934 -3.390411 2.977913 9.765313 11.759910 -4.549211 2.772389 0.140688 -3.273228 -23.877168 61.768864 -6.946289 49.580388 7.268947 0.000000 0.000000 0.000000 
4.286405 110.485870 -5.800125 0.000000 0.000000 0.000000 -6.863855 -48.925267 -2.897201 -27.421497 1.840943 15.335380 17.164023 -8.597694 -0.357574 7.617712 -5.369375 -6.895469 -0.430096 -2.404503 -0.778740 0.000000 0.000000 0.000000 -4.895558 -44.280209 -2.299060 -13.106504 -11.386639 -17.523651 38.982427 7.100556 -0.806470 -15.398388 -2.547565 9.015945 -2.063368 -1.386379 -0.673842 0.000000 0.000000 0.000000 -8.739185 -41.313205 -4.669867 6.602219 3.474362 -2.122415 13.703528 9.350053 -3.285594 1.963616 0.003424 1.318304 0.000000 0.000000 0.000000 13.663463 8.731824 -3.910866 -13.155020 -1.882835 2.682615 -4.715023 20.624144 -0.011358 0.000000 0.000000 0.000000 13.790411 8.450557 -3.432997 2.277526 1.809847 -1.593312 -4.102872 -0.018895 -0.931688 -16.189037 -0.377000 -65.322468 5.046050 -46.869185 5.999835 0.000000 0.000000 0.000000 14.191027 9.091058 -3.617213 3.295837 10.024591 11.778789 -4.943623 2.286547 0.054723 -6.202093 -18.771890 58.706528 -6.399141 51.662994 5.670070 0.000000 0.000000 0.000000 
4.755725 107.934372 -9.646961 0.000000 0.000000 0.000000 -3.968143 -46.198122 -1.489848 -33.361758 2.012430 16.208853 17.325166 -6.894977 -0.331363 11.088061 -5.886772 -8.609965 -0.680230 -2.046941 -1.286722 0.000000 0.000000 0.000000 -2.804058 -41.517745 -1.317471 -19.654774 -13.069988 -17.084257 45.224226 10.132509 0.535878 -13.141291 1.153853 5.371954 -7.290797 -1.497635 -1.283014 0.000000 0.000000 0.000000 -5.905796 -38.352615 -3.176627 7.300463 2.459673 -2.621881 15.132749 8.642319 -3.254608 1.978102 0.412992 1.534421 0.000000 0.000000 0.000000 15.251495 8.077704 -3.899867 -16.836700 -1.583526 3.241326 -5.919045 18.784984 0.329876 0.000000 0.000000 0.000000 15.391078 7.805073 -3.596778 2.217058 2.075187 -0.424092 -3.606969 -0.971893 0.174802 -19.611240 -1.639759 -66.603292 4.220902 -44.715398 6.351980 0.000000 0.000000 0.000000 15.837414 8.398506 -3.799645 3.668591 10.242794 11.109031 -5.312862 2.134298 -0.207175 -9.314238 -13.754548 55.786998 -5.956049 55.422248 3.628866 0.000000 0.000000 0.000000 
4.884375 104.701714 -13.139126 0.000000 0.000000 0.000000 -0.333404 -42.667953 0.013928 -42.017585 1.661031 16.799101 19.478841 -6.221374 -0.046895 15.538134 -7.956270 -10.384227 -1.846885 -1.743773 -1.318813 0.000000 0.000000 0.000000 0.247542 -38.166090 -0.111809 -26.584618 -15.566452 -15.697189 51.182419 13.538906 1.674704 -11.342252 5.273077 1.115527 -11.593454 -1.560444 -1.629930 0.000000 0.000000 0.000000 -2.119867 -35.459398 -1.680272 8.110899 1.554783 -2.951428 16.895494 7.751697 -3.310715 1.962556 0.636538 1.615678 0.000000 0.000000 0.000000 17.112095 7.259938 -3.930931 -20.911278 -1.564558 3.722823 -7.806603 16.462544 0.980318 0.000000 0.000000 0.000000 17.215102 7.004635 -3.870063 2.205998 2.092956 0.561670 -2.710927 -2.061068 0.770389 -22.878224 -3.991843 -66.235732 2.076558 -43.951598 5.622534 0.000000 0.000000 0.000000 17.676917 7.585216 -3.961725 4.078082 10.591485 9.970068 -5.551387 2.714970 -0.615544 -12.122854 -10.039448 53.637452 -5.341428 60.451095 1.002825 0.000000 0.000000 0.000000 
4.615657 100.773056 -16.195339 0.000000 0.000000 0.000000 3.968786 -37.971569 1.464664 -52.242553 1.340087 16.653553 22.982511 -5.794881 0.229034 18.419487 -10.895022 -10.548120 -3.257094 -1.573156 -1.041043 0.000000 0.000000 0.000000 4.092758 -34.124913 1.160992 -33.344813 -18.750223 -13.451064 56.365060 16.490853 2.727979 -11.477027 9.333663 -4.609626 -13.054367 -1.506415 -1.626373 0.000000 0.000000 0.000000 2.272636 -32.564122 -0.369642 8.983102 0.940734 -3.062265 18.959154 6.751698 -3.503567 1.785511 0.758948 1.442808 0.000000 0.000000 0.000000 19.165907 6.345536 -4.044915 -25.058048 -1.890677 3.971601 -10.287723 13.602323 1.824018 0.000000 0.000000 0.000000 19.170497 6.128459 -4.257939 2.225413 1.856956 1.282142 -1.903415 -2.990254 0.676995 -24.905889 -7.191100 -63.855766 -0.833143 -46.215232 3.949350 0.000000 0.000000 0.000000 19.685119 6.730907 -4.150462 4.482711 11.244848 8.489150 -5.491745 3.725853 -1.041457 -14.183217 -8.273224 52.329166 -4.113740 66.282806 -2.431644 0.000000 0.000000 0.000000 
4.206108 96.071274 -18.250835 0.000000 0.000000 0.000000 8.484382 -32.147177 2.581886 -62.899096 1.112977 15.803388 28.231393 -5.025958 0.320221 18.365716 -13.826424 -8.833204 -4.422312 -1.520904 -0.638100 0.000000 0.000000 0.000000 8.471064 -29.251381 2.299618 -40.282666 -21.917531 -11.056544 61.766548 18.914394 3.322222 -13.264720 12.946794 -10.674804 -13.455500 -1.259394 -1.493920 0.000000 0.000000 0.000000 7.009023 -29.475835 0.817648 9.859681 0.706429 -3.000224 21.111686 5.728001 -3.847771 1.315619 0.762389 1.239911 0.000000 0.000000 0.000000 21.270051 5.431826 -4.262663 -28.831765 -2.462708 3.955024 -13.165188 10.296722 2.707759 0.000000 0.000000 0.000000 21.131738 5.265384 -4.752173 2.280663 1.340994 1.830063 -1.388475 -3.842258 0.270751 -25.231422 -10.555484 -59.202809 -4.088424 -51.905637 1.339916 0.000000 0.000000 0.000000 21.736437 5.896662 -4.433092 4.902236 12.364198 6.836896 -4.746202 4.755261 -1.512002 -15.807307 -8.387653 51.284076 -1.530149 72.252733 -7.162430 0.000000 0.000000 0.000000 
3.771180 90.622887 -19.475391 0.000000 0.000000 0.000000 12.846494 -25.791296 3.232757 -73.856243 0.804059 15.331840 37.030560 -4.203720 0.150839 16.442007 -16.468399 -6.876667 -5.080009 -1.454874 -0.546817 0.000000 0.000000 0.000000 13.025280 -24.018099 3.116018 -48.213257 -24.420440 -9.484524 68.796507 20.688286 2.978770 -15.230555 15.365448 -15.579180 -15.662471 -0.826352 -1.496534 0.000000 0.000000 0.000000 11.724584 -25.913558 1.791277 10.527312 0.814880 -2.869857 23.122178 4.748818 -4.313106 0.833684 0.814686 1.122992 0.000000 0.000000 0.000000 23.187394 4.566139 -4.574783 -31.903749 -3.191756 3.682873 -16.302246 6.677057 3.465711 0.000000 0.000000 0.000000 22.893730 4.470420 -5.288695 2.385897 0.617815 2.268310 -1.085004 -4.809242 -0.079027 -24.282111 -13.325070 -52.748673 -7.881506 -59.966807 -2.487312 0.000000 0.000000 0.000000 23.593365 5.112148 -4.793689 5.351928 14.028883 5.285259 -3.768766 5.318516 -1.928017 -17.517967 -9.256684 49.677653 3.711279 77.508256 -14.304212 0.000000 0.000000 0.000000 
3.389282 84.579323 -19.828861 0.000000 0.000000 0.000000 16.985381 -19.771451 3.531659 -84.466484 0.285111 15.994377 50.641253 -2.717312 -0.536482 14.273658 -18.232251 -4.862616 -6.273799 -1.396369 -0.856012 0.000000 0.000000 0.000000 17.524508 -18.596850 3.517244 -57.720132 -25.283986 -9.149694 77.979095 21.785025 1.424735 -17.063503 16.071177 -18.577158 -20.345330 -0.374527 -1.638511 0.000000 0.000000 0.000000 16.199658 -21.957960 2.466297 10.853706 1.126686 -2.782338 24.730677 3.875014 -4.810436 0.459268 0.748522 0.957742 0.000000 0.000000 0.000000 24.708341 3.813828 -4.924739 -33.801548 -3.904974 3.292124 -19.380993 3.031245 3.924475 0.000000 0.000000 0.000000 24.270912 3.777478 -5.792994 2.443708 -0.165889 2.622418 -0.623118 -5.495648 -0.287216 -23.121246 -15.503266 -45.331805 -13.366528 -69.295841 -8.622499 0.000000 0.000000 0.000000 25.056315 4.411432 -5.189141 5.846036 16.327979 4.040745 -2.824187 4.962050 -1.935064 -20.053478 -9.580910 46.712972 13.000146 81.208176 -24.993255 0.000000 0.000000 0.000000 
